<?xml version="1.0" encoding="utf-8"?>
<!-- Generator: Adobe Illustrator 16.0.0, SVG Export Plug-In . SVG Version: 6.00 Build 0)  -->
<!DOCTYPE svg PUBLIC "-//W3C//DTD SVG 1.1//EN" "http://www.w3.org/Graphics/SVG/1.1/DTD/svg11.dtd">
<svg version="1.1" id="Laag_1" xmlns="http://www.w3.org/2000/svg" xmlns:xlink="http://www.w3.org/1999/xlink" x="0px" y="0px"
	 width="233.51px" height="232.978px" viewBox="0 0 233.51 232.978" enable-background="new 0 0 233.51 232.978"
	 xml:space="preserve">
<path fill="none" stroke="#1D1D1B" stroke-width="2.126" stroke-miterlimit="10" d="M86.716,220.109H41.998
	c-1.908,0-3.501-1.447-3.684-3.346c-0.423-4.412-0.942-12.125,0.037-16.484c0.176-0.781,0.126-1.593-0.203-2.324
	c-3.102-6.875-18.509-43.414-13.498-80.283c0.021-0.152,0.031-0.307,0.031-0.461V55.249c0-0.105,0.004-0.204,0.013-0.309
	c0.117-1.397,1.142-11.05,7.32-13.831c6.667-3,10.667,11.667,9.667,14.333v45.334V34.109c0,0,0.333-10.333,7.333-11.667
	c7-1.333,10,4.667,10.334,7.667c0.333,3,0,63,0,63V23.08c0-0.572,0.13-1.132,0.384-1.644c1.058-2.132,4.176-6.724,7.949-6.994
	c4.667-0.333,10.667,4.334,11,11.334v68.666V30.133c0-0.697,0.193-1.377,0.565-1.967c1.154-1.825,4.892-5.645,7.435-5.39
	c3.333,0.333,8.333,3,8.667,9l1.656,65.085c0.007,0.164,0.022,0.321,0.052,0.483c0.373,2.119,3.124,17.986,2.976,23.982
	c-0.007,0.303-0.06,0.598-0.145,0.891l-4.873,16.893l13.291-38.211c0.029-0.084,0.06-0.164,0.096-0.246
	c0.645-1.481,7.142-15.713,18.647-15.259c2.169,0.086,3.797,2.024,3.519,4.177l-5.886,45.539c0,0-2.624,23.615-17.307,36.033
	c-0.237,0.201-0.449,0.429-0.627,0.686l-12.868,18.518c-0.35,0.5-0.568,1.082-0.639,1.688l-2.85,24.799
	C90.176,218.701,88.596,220.109,86.716,220.109z"/>
<path fill="#FFFFFF" stroke="#1D1D1B" stroke-width="2.126" stroke-miterlimit="10" d="M222.325,67.412
	c0,0,7.044-50.196-49.909-52.77c-56.951-2.574-52.447,52.77-52.447,52.77s-1.609,54.057,34.751,94.921
	c0,0,1.931,52.77,32.177,57.274s34.819-33.464,34.819-33.464"/>
<path fill="none" stroke="#1D1D1B" stroke-width="2.126" stroke-miterlimit="10" d="M200.514,93.064
	c0,0,26.936-59.714-19.851-67.029c-44.59-6.971-44.581,44.855-44.581,44.855s-1.367,45.948,29.539,80.683"/>
<path fill="none" stroke="#1D1D1B" stroke-width="2.126" stroke-miterlimit="10" d="M203.829,74.723c0,0-37.5-10.5-36.5,29
	c0,0,1.5,21,11.5,36s20,5,20,5s7-7.5-3-21.5"/>
<path fill="none" stroke="#1D1D1B" stroke-width="11.3386" stroke-miterlimit="10" d="M228.015,4.833H5.515v222.5h222.5V4.833z"/>
</svg>
